<svg width="54" height="55" viewBox="0 0 54 55" fill="none" xmlns="http://www.w3.org/2000/svg">
<path d="M22.5913 3.28623C14.7494 4.96803 9.01956 11.9299 9 19.7718C9 23.0768 10.1147 26.851 11.7769 29.2173C12.1485 29.7257 12.1485 29.804 11.8552 30.5471C11.4445 31.5444 11.464 32.3853 11.9138 33.3631C12.4809 34.6343 13.9476 35.6121 15.2579 35.6121C15.9228 35.6121 17.0375 35.1818 17.6046 34.6929C19.5015 33.1089 19.3646 30.1364 17.3504 28.8066C16.6463 28.3373 16.353 28.2786 14.9841 28.2786H13.4001L12.5983 26.6555C11.4249 24.3283 11.0534 22.7052 11.0534 19.8696C11.0729 17.1513 11.3663 15.7629 12.5005 13.4162C13.7521 10.7957 15.8054 8.5272 18.3477 6.98229C19.7557 6.14139 22.5718 5.18315 24.2145 4.98759C25.5051 4.8507 26.0136 4.55736 26.0136 3.93157C26.0136 2.95378 25.0162 2.75822 22.5913 3.28623ZM16.2552 30.3906C17.9761 31.7204 16.4117 34.3605 14.4756 33.3631C13.3805 32.796 13.2045 31.5836 14.065 30.7035C14.6908 30.0973 15.6685 29.9409 16.2552 30.3906Z" fill="#662565"/>
<path d="M28.7906 3.57952C28.6537 3.71641 28.5559 4.04886 28.5559 4.36175C28.5559 5.33954 29.8466 5.57421 30.3355 4.6942C30.7853 3.8533 29.475 2.89506 28.7906 3.57952Z" fill="#662565"/>
<path d="M35.1071 4.6551C33.7773 5.35911 33.0538 6.5129 33.0538 7.94048C33.0538 9.11383 33.4253 9.95474 34.2858 10.7174C35.2245 11.5388 36.3783 11.8517 37.4343 11.5779C38.1578 11.3823 38.2752 11.4019 38.6076 11.8125C39.1748 12.4774 40.2112 14.8241 40.6023 16.3495C41.1108 18.3833 41.0717 21.7469 40.5045 23.7807C39.6245 26.9292 37.845 29.7061 35.4396 31.6226C34.2467 32.5809 31.2155 34.1649 30.1791 34.3604L29.5337 34.4778V31.8768V29.2564L30.5311 28.7675C34.4031 26.9488 36.7107 22.0011 35.7134 17.738C34.6182 13.1423 30.6875 9.99385 26.0137 9.99385C23.1194 10.0134 20.9487 10.913 18.9736 12.9077C14.2606 17.6989 15.3166 25.2083 21.2029 28.6501L22.4936 29.4128L22.4741 36.4725C22.4741 44.3535 22.6109 43.7668 21.2225 41.6743C20.1078 40.0121 18.25 39.4841 16.4704 40.325C15.2384 40.9312 14.593 42.0068 14.5735 43.4344C14.5735 44.4708 14.7299 44.8619 16.5291 48.4993C17.6046 50.67 18.6411 52.5865 18.8171 52.7625C19.2864 53.1927 20.1078 52.9385 20.2642 52.3323C20.362 51.9607 19.9122 50.8851 18.4064 47.8149C17.3113 45.5855 16.4313 43.6299 16.4313 43.4344C16.4313 43.2388 16.666 42.8086 16.9397 42.4761C17.4678 41.8308 18.25 41.6743 18.9736 42.0654C19.1691 42.1632 20.0882 43.5321 21.0269 45.0966C22.9043 48.206 23.3932 48.6167 24.0972 47.7366C24.4296 47.326 24.4492 46.6611 24.4492 35.7098C24.4492 24.9541 24.4687 24.0936 24.8012 23.7025C25.3488 23.0376 26.2288 22.9789 26.9132 23.5461L27.4803 24.0349L27.539 33.8715C27.5781 40.6379 27.6564 43.7864 27.7932 43.9624C28.1257 44.3535 28.8884 44.2557 29.2208 43.7864C29.475 43.4344 29.5337 42.7499 29.5337 40.4814C29.5337 37.6067 29.5337 37.5872 30.0422 37.196C30.7266 36.6485 31.3915 36.6876 31.9782 37.2743C32.4475 37.724 32.4671 37.8218 32.4671 40.7552C32.4671 43.4344 32.5062 43.8255 32.8387 44.2361C33.1515 44.6273 33.2884 44.6664 33.7578 44.5099L34.3249 44.3144L34.4227 41.0094L34.5205 37.724L35.068 37.2547C35.772 36.6485 36.4565 36.6485 37.0627 37.2743C37.5321 37.7436 37.5516 37.8218 37.5516 40.7943C37.5516 42.5348 37.6298 44.021 37.7472 44.2361C37.9818 44.6664 38.901 44.7446 39.2725 44.373C39.429 44.2166 39.5072 43.4148 39.5072 42.0459C39.5072 40.1294 39.5463 39.8947 39.957 39.445C40.661 38.6432 41.3455 38.6041 42.0495 39.2885L42.6361 39.8752V46.1526C42.6361 51.5696 42.6752 52.4496 42.949 52.7038C43.3597 53.1145 43.8682 53.095 44.2593 52.6647C44.5526 52.3323 44.5917 51.5892 44.5917 45.9766C44.5917 40.0512 44.5722 39.6014 44.2006 38.8387C43.477 37.3525 41.7952 36.5703 40.2503 37.0005C39.5268 37.196 39.3899 37.1765 39.2139 36.8831C38.4512 35.5729 37.2778 34.8493 35.9676 34.8298C35.5765 34.8298 34.8334 35.0449 34.3249 35.3382C32.6822 36.1987 32.9364 35.5338 34.6573 34.4973C38.6272 32.0529 41.2868 28.5328 42.4601 24.0545C43.0664 21.7665 43.0664 18.0117 42.4601 15.7628C42.0299 14.1397 40.9934 11.7539 40.2894 10.7761C39.8983 10.2285 39.8983 10.1698 40.2112 9.07472C40.4654 8.13604 40.485 7.78404 40.309 7.09958C40.0352 6.10223 39.0574 4.94844 38.197 4.59643C37.3561 4.24443 35.8307 4.26398 35.1071 4.6551ZM37.7081 6.59113C39.2139 7.62759 38.1383 10.0916 36.3587 9.70051C35.0876 9.40717 34.5596 7.68626 35.4982 6.76713C36.0458 6.20001 37.0432 6.12179 37.7081 6.59113ZM28.3017 12.2428C28.8493 12.3992 29.8271 12.8881 30.492 13.3379C35.0876 16.4082 35.1658 23.1745 30.6288 26.4599C30.2182 26.7532 29.7879 27.0074 29.6902 27.0074C29.6119 27.0074 29.5337 26.499 29.5337 25.8732C29.5337 25.267 29.4359 24.387 29.3382 23.9176C29.1622 23.1549 29.1817 23.018 29.6119 22.5096C30.1986 21.8056 30.5897 20.1824 30.4137 19.2438C29.9835 16.9362 28.1648 15.4695 25.7985 15.4695C23.3345 15.489 21.2811 17.914 21.5745 20.4758C21.6136 20.9647 21.9265 21.7665 22.2589 22.2945C22.6501 22.9203 22.7869 23.3309 22.6696 23.5069C22.5718 23.6634 22.4936 24.5043 22.4936 25.3843C22.4936 26.2839 22.4545 27.0074 22.3958 27.0074C21.9852 27.0074 21.0269 26.2643 20.0882 25.267C18.5629 23.6047 18.1131 22.3923 18.0935 19.8696C18.0935 18.0704 18.1522 17.8162 18.7193 16.6037C19.7167 14.4917 21.4963 12.9468 23.7647 12.2232C24.8403 11.8712 27.1088 11.8908 28.3017 12.2428ZM27.3435 17.8162C28.4973 18.5202 28.8493 20.1629 28.067 21.2776C27.7932 21.6687 27.7541 21.6687 26.9132 21.3754C26.1701 21.1016 25.8963 21.082 25.1141 21.2971C23.9799 21.61 23.6865 21.3949 23.5301 20.2216C23.2563 18.1682 25.5443 16.7211 27.3435 17.8162Z" fill="#662565"/>
</svg>
