<svg width="54" height="55" viewBox="0 0 54 55" fill="none" xmlns="http://www.w3.org/2000/svg">
<path d="M23.6914 2.37929C21.5845 3.11026 20.2301 4.91619 20.0366 7.25959C19.9506 8.35604 20.0366 8.78603 20.4665 9.73199C21.52 12.0324 23.0894 13.0428 25.5833 13.0428C28.0772 13.0428 29.6467 12.0324 30.7001 9.73199C32.0331 6.85111 30.3561 3.21776 27.2818 2.3148C25.8413 1.88481 25.1103 1.88481 23.6914 2.37929ZM27.2603 4.14222C30.8506 5.88365 29.6037 11.4304 25.5833 11.4304C21.5845 11.4304 20.316 5.92664 23.9064 4.14222C25.0673 3.56174 26.0563 3.56174 27.2603 4.14222Z" fill="#622862"/>
<path d="M14.8337 14.4617C11.2863 14.9776 8.85693 15.4291 8.42694 15.6656C8.01846 15.8591 7.45948 16.4611 7.1585 16.9556C6.19104 18.6325 6.79301 20.8254 8.44844 21.6854C8.96442 21.9433 10.2974 22.0938 13.4362 22.2873C15.8011 22.4378 17.7576 22.5668 17.7791 22.5883C17.9295 22.6743 18.9185 26.3722 18.854 26.5657C18.7895 26.7162 17.6931 27.4686 16.4246 28.2426C15.1347 29.0381 13.8232 29.941 13.5007 30.285C12.5763 31.2525 12.0388 32.6499 12.0388 34.1333C12.0388 35.5738 12.3183 36.0253 13.1567 35.8963C13.6082 35.8318 13.6512 35.7028 13.7587 34.3268C13.9522 31.8759 14.1672 31.5964 17.8436 29.382C20.1225 28.0276 20.6169 27.5116 20.6384 26.6302C20.6384 25.9637 19.628 22.2658 19.284 21.7284C18.811 20.9759 18.166 20.8254 13.8232 20.5674C9.71689 20.3309 9.4159 20.2879 8.92142 19.8149C8.25495 19.1915 8.23345 18.31 8.85693 17.5575C9.32991 17.0201 9.65239 16.9556 15.5216 16.1171C21.3264 15.2786 21.7134 15.2571 22.4014 15.5796C24.4008 16.5256 26.6797 16.5686 28.7651 15.7086L29.883 15.2356L35.4083 15.9236C38.4612 16.2891 41.1701 16.6546 41.4281 16.6976C42.675 16.9771 43.234 18.783 42.374 19.8364C42.0515 20.2449 41.7291 20.3309 40.1381 20.4384C38.1602 20.5674 37.7517 20.7609 37.8807 21.5564C37.9452 22.0508 37.9882 22.0723 40.1381 22.0723C42.0085 22.0723 42.3955 22.0078 42.9115 21.6209C44.2229 20.6534 44.7389 19.2775 44.4164 17.579C44.2229 16.5686 43.0835 15.4076 42.03 15.1281C41.5571 14.9991 38.5687 14.5907 35.3653 14.2037L29.5606 13.5157L28.0556 14.0962C26.3142 14.8056 24.8523 14.7841 23.2183 14.0317C21.9714 13.4512 21.5629 13.4727 14.8337 14.4617Z" fill="#622862"/>
<path d="M32.7425 20.9115C32.3555 21.019 31.904 21.32 31.732 21.5565C31.259 22.2445 30.2271 26.1358 30.3776 26.7163C30.4635 26.9958 32.635 29.7907 35.2578 32.9295C39.3642 37.8528 39.9877 38.7128 39.9877 39.3363C39.9877 40.3682 38.9987 41.3142 37.9237 41.3142C37.2143 41.3142 36.9778 41.1637 36.0533 40.1747C35.4728 39.5728 33.0649 36.9499 30.6785 34.37C28.0342 31.5321 26.2067 29.7047 25.9487 29.7047C25.4113 29.7047 19.241 33.682 18.682 34.413C18.2521 34.9289 18.2306 35.1439 18.3381 37.9603C18.4241 39.8952 18.3811 41.0992 18.2306 41.4002C17.4351 42.9911 15.2637 42.9911 14.5112 41.4217C14.3392 41.0347 14.1887 40.2177 14.1887 39.6158C14.1887 38.2613 13.6083 37.4873 12.8773 37.8958C12.4473 38.1108 12.4258 38.2828 12.5118 39.8952C12.6193 41.9162 13.0278 42.8621 14.1672 43.6146C16.1236 44.926 18.6605 44.2811 19.7355 42.1741C20.187 41.2712 20.2085 41.0562 20.0795 38.3043L19.929 35.3804L22.2724 33.8755C23.5623 33.037 24.8738 32.1986 25.1963 31.9836L25.7552 31.6181L30.7215 36.9929C33.6024 40.0887 36.0103 42.4966 36.4188 42.6901C37.3218 43.1201 38.7407 43.1416 39.5147 42.7331C40.1811 42.3891 41.1056 41.4217 41.4711 40.7337C41.7721 40.1532 41.7721 38.7343 41.4926 38.0033C41.3851 37.7023 39.3212 35.1009 36.9348 32.2201C34.5269 29.3607 32.4415 26.8453 32.291 26.6518C32.0545 26.3508 32.076 26.0283 32.463 24.6094C32.721 23.6849 33.0434 22.8035 33.1509 22.653C33.2799 22.5025 33.8604 22.395 34.5269 22.395C35.4298 22.395 35.7093 22.309 35.9028 21.9865C36.1823 21.449 36.1823 21.406 35.7738 21.019C35.4083 20.632 33.8819 20.589 32.7425 20.9115Z" fill="#622862"/>
<path d="M6.62117 34.9289C4.70775 35.8964 2.53634 38.0893 2.17086 39.4223C1.67638 41.1852 2.25685 42.8621 3.89079 44.496C11.222 51.7842 39.7943 51.8487 47.1685 44.6035C49.6839 42.1096 49.8559 39.7017 47.6845 37.3153C46.674 36.2189 44.8251 34.9289 43.5781 34.456C43.0836 34.2625 42.9117 34.3055 42.5677 34.6495C42.3312 34.8859 42.2022 35.2084 42.2667 35.3804C42.3312 35.5524 43.0621 36.0899 43.8791 36.5844C45.857 37.7668 46.717 38.5193 47.1685 39.5727C48.5874 42.6686 44.1586 45.7645 35.9029 47.4199C23.9065 49.8278 8.53459 47.5059 4.55726 42.7116C2.88033 40.6692 3.69729 38.6483 6.94366 36.7564C8.77108 35.7029 9.09357 35.3804 8.81408 34.8644C8.47009 34.198 8.01861 34.2195 6.62117 34.9289Z" fill="#622862"/>
</svg>
