<svg width="54" height="55" viewBox="0 0 54 55" fill="none" xmlns="http://www.w3.org/2000/svg">
<path d="M30.2695 3.13672C21.2414 4.42344 17.6344 4.99297 17.107 5.28828C16.1156 5.81562 15.1875 7.01797 15.0398 8.00937C14.9555 8.6 14.7023 9.00078 14.1961 9.42266C12.7828 10.625 12.7617 10.6672 12.6984 17.8391C12.6562 21.425 12.593 24.3359 12.5719 24.3359C12.5297 24.3359 12.2133 24.2305 11.8547 24.1039C11.3062 23.9141 10.7367 24.0406 7.55156 25.0531C5.54765 25.707 3.50156 26.382 2.99531 26.5719L2.10937 26.9094V29.1875C2.10937 31.2125 2.15156 31.5289 2.48906 31.6977C2.78437 31.8453 3.0164 31.8242 3.33281 31.5922C3.71249 31.318 3.79687 31.0648 3.79687 29.9891C3.79687 28.9133 3.83906 28.7445 4.13437 28.85C4.32421 28.9133 4.51406 28.9766 4.55624 28.9766C4.59843 28.9766 4.64062 29.9469 4.64062 31.1492C4.64062 32.7312 4.72499 33.4273 4.95702 33.7437C5.14687 33.9969 5.25234 34.6297 5.27343 35.4312C5.27343 37.0977 5.77968 38.7219 6.53906 39.6078C7.08749 40.2195 7.17187 40.4937 7.17187 41.4852V42.6664L5.42109 43.1937C3.24843 43.8687 2.27812 44.5227 1.68749 45.7461C1.28671 46.5898 1.24452 46.9695 1.30781 48.9734C1.37109 51.125 1.41327 51.3148 1.98281 52.0531C2.32031 52.4961 2.97421 53.0445 3.45937 53.2555C4.28202 53.6352 5.23124 53.6562 23.7094 53.6562H43.1156L44.0437 53.2133C44.6555 52.8969 45.1828 52.4328 45.5836 51.8C46.1531 50.893 46.1953 50.682 46.1953 48.7836C46.1953 46.4633 46.0687 46.6109 48.1992 46.3789C50.1398 46.168 50.9836 45.8937 51.8062 45.1766C52.8187 44.2906 53.2195 43.4258 53.1984 42.1602C53.1773 40.1984 48.0937 4.27578 47.7351 3.57969C46.9547 2.03984 45.7523 1.32265 43.9383 1.36484C43.2633 1.38594 37.125 2.1875 30.2695 3.13672ZM45.225 3.28437C45.5203 3.41094 45.9211 3.74844 46.1109 4.02266C46.343 4.40234 47.1656 9.95 48.9586 23.0281C50.3297 33.1953 51.4687 41.7805 51.4687 42.0969C51.4687 42.8773 50.9625 43.8687 50.393 44.1852C49.8867 44.4383 46.4695 44.9867 46.3008 44.8391C46.2375 44.7758 46.1953 37.2453 46.1953 28.0906C46.1953 12.1859 46.1742 11.4266 45.7945 10.6672C45.3305 9.78125 44.8875 9.33828 43.9383 8.85312C43.3266 8.55781 41.8078 8.51562 29.9531 8.51562C15.1875 8.51562 15.9047 8.6 17.3391 7.16562L18.0352 6.46953L23.8359 5.68906C27.0211 5.24609 32.5266 4.48672 36.0703 3.98047C43.0312 3.01015 44.4023 2.90469 45.225 3.28437ZM43.4742 10.4773C44.6555 11.2789 44.6133 10.3508 44.6133 31.0859C44.6133 51.9477 44.6766 51.0195 43.4109 51.6734C42.9469 51.9266 40.9008 51.9688 31.7672 51.9688H20.693L21.0094 51.2305C21.1992 50.7875 21.3047 49.7961 21.3047 48.657C21.2836 45.4508 20.4187 44.2906 17.2547 43.2359L15.293 42.582L15.2297 41.4852C15.1664 40.4937 15.2508 40.2617 15.8203 39.5445C16.643 38.532 17.0859 37.0977 17.0859 35.4312C17.107 34.6297 17.2125 33.9969 17.4023 33.7437C17.6344 33.4273 17.7187 32.7312 17.7187 31.1703V29.0398L19.0055 28.5758C20.2289 28.1117 20.2711 28.0695 20.2078 27.4367C20.1445 26.7828 20.1234 26.7617 17.2547 25.8547L14.3437 24.9477V18.4508C14.3437 12.0383 14.3437 11.9539 14.8289 11.2367C15.1031 10.8359 15.6305 10.4141 16.0312 10.2664C16.5797 10.0766 20.0601 10.0133 29.8476 10.0555C41.9344 10.0977 42.968 10.1187 43.4742 10.4773ZM14.0062 26.6984L16.7695 27.5633L13.9852 28.4703L11.1797 29.3773L8.39531 28.4703L5.58984 27.5633L8.22656 26.7195C9.68202 26.2344 10.9476 25.8336 11.0531 25.8336C11.1586 25.8125 12.4875 26.2133 14.0062 26.6984ZM8.7539 30.3898L11.0531 31.1492L13.3945 30.3898C14.6812 29.9469 15.8414 29.6094 15.9891 29.6094C16.1578 29.6094 16.2422 30.0945 16.2422 31.1703C16.2422 33.4273 16.3055 33.4062 11.1797 33.4062C6.0539 33.4062 6.11718 33.4273 6.11718 31.1703C6.11718 30.3055 6.18046 29.6094 6.26484 29.6094C6.37031 29.6094 7.46718 29.9469 8.7539 30.3898ZM15.3984 35.8742C15.3773 37.6039 14.2594 39.3758 12.8039 39.9242C12.4664 40.0508 11.7492 40.1562 11.1797 40.1562C9.91406 40.1562 9.15468 39.882 8.37421 39.1438C7.46718 38.2789 6.96093 37.1609 6.96093 35.9375V34.8828H11.1797H15.3984V35.8742ZM11.707 41.7805C12.4031 41.7172 13.1414 41.6117 13.3523 41.5273C13.6476 41.4008 13.7109 41.5062 13.7109 42.1391C13.7109 42.793 13.5844 42.9828 12.593 43.7422C11.9601 44.2063 11.3906 44.5859 11.3062 44.5859C11.2219 44.5859 10.6312 44.1852 9.99843 43.7C9.04921 42.9406 8.85937 42.6875 8.85937 42.118V41.4641L9.66093 41.675C10.0828 41.8016 11.0109 41.8438 11.707 41.7805ZM9.36562 45.3242C9.59765 45.493 9.74531 45.6617 9.68202 45.7039C9.63984 45.7461 9.21796 46.0414 8.77499 46.3367L7.93124 46.8852L7.21406 45.8305C6.83437 45.2398 6.53906 44.7336 6.58124 44.7125C6.62343 44.6703 6.93984 44.5437 7.27734 44.4383C7.93124 44.2273 8.01562 44.2484 9.36562 45.3242ZM15.5672 44.4383L16.2422 44.6914L15.5039 45.7883L14.7656 46.8852L13.8164 46.3156C13.2891 45.9992 12.8672 45.7039 12.8672 45.6406C12.8883 45.5141 14.618 44.1852 14.7656 44.1852C14.8289 44.1852 15.1875 44.3117 15.5672 44.4383ZM5.94843 46.9062C6.56015 47.8344 7.23515 48.6359 7.42499 48.6992C7.65702 48.7836 8.26874 48.4883 9.07031 47.9609L10.3359 47.0961V49.543V51.9688H7.31953C3.96562 51.9688 3.56484 51.8422 3.03749 50.5766C2.69999 49.7539 2.65781 48.1719 2.95312 47.075C3.16406 46.3578 4.19765 45.2188 4.66171 45.2188C4.76718 45.2188 5.35781 45.9781 5.94843 46.9062ZM18.9633 45.957C19.5961 46.6953 19.6172 46.7797 19.6172 48.6992C19.6172 50.6187 19.5961 50.682 18.9633 51.3148L18.3094 51.9688H15.1664H12.0234V49.543V47.1172L13.4156 47.982C15.1453 49.0789 15.3562 48.9945 16.7906 46.8219C17.3601 45.9359 17.9297 45.2188 18.0562 45.2188C18.2039 45.2188 18.6047 45.5562 18.9633 45.957Z" fill="#622862"/>
<path d="M18.6047 14.0422C18.457 14.1898 18.3516 14.443 18.3516 14.6328C18.3516 15.4133 18.7313 15.4766 23.8781 15.4766C28.6031 15.4766 28.8984 15.4555 29.1094 15.0758C29.3836 14.5484 29.3836 14.5062 28.9828 14.1266C28.7086 13.8312 27.9281 13.7891 23.7516 13.7891C20.2289 13.7891 18.7945 13.8523 18.6047 14.0422Z" fill="#622862"/>
<path d="M18.6047 18.261C18.2883 18.5774 18.2883 19.1258 18.6047 19.4422C18.9422 19.7797 40.0992 19.8008 40.732 19.4844C41.175 19.2313 41.2594 18.6407 40.8797 18.261C40.5211 17.9024 18.9633 17.9024 18.6047 18.261Z" fill="#622862"/>
<path d="M18.6047 22.4797C18.2672 22.8172 18.2883 23.1758 18.689 23.5766C18.9844 23.8719 20.2711 23.9141 29.7422 23.9141C39.2133 23.9141 40.5 23.8719 40.7953 23.5766C41.1961 23.1758 41.2172 22.8172 40.8797 22.4797C40.5211 22.1211 18.9633 22.1211 18.6047 22.4797Z" fill="#622862"/>
<path d="M22.5914 26.825C22.4648 27.057 22.4648 27.3313 22.5914 27.5633C22.7812 27.9008 23.4984 27.9219 31.725 27.9219C41.3016 27.9219 41.3648 27.9219 41.0273 26.8672C40.9008 26.4453 40.7742 26.4453 31.8516 26.4453C23.393 26.4453 22.7812 26.4664 22.5914 26.825Z" fill="#622862"/>
<path d="M33.9609 30.0946C32.0414 30.643 30.3117 32.1196 29.4891 33.9336C29.1305 34.7352 29.0039 35.368 29.0039 36.5703C29.0039 38.4688 29.5523 39.8188 30.7969 41.1055L31.6406 41.9493L31.6828 45.6407C31.7672 50.0703 31.7461 50.0493 34.1297 48.3828L35.6695 47.3071L37.1461 48.3828C38.2219 49.1633 38.7914 49.4375 39.1922 49.3953L39.7617 49.3321L39.825 45.5563L39.8672 41.7805L40.6266 40.9368C41.8078 39.6289 42.2719 38.4055 42.2719 36.5703C42.293 35.2625 42.1875 34.7774 41.7023 33.8071C41.0273 32.4149 39.593 31.0227 38.2852 30.4321C37.0828 29.9047 35.1633 29.7571 33.9609 30.0946ZM38.3063 32.2672C38.9391 32.6469 39.5719 33.2797 39.9727 33.9125C40.5211 34.8196 40.6055 35.1571 40.6055 36.4438C40.6055 38.2578 40.0359 39.4602 38.6648 40.4938C37.3781 41.4852 35.8383 41.7805 34.3617 41.3586C29.8688 40.0297 29.2359 34.1446 33.3703 32.0352C34.9313 31.2547 36.8297 31.3391 38.3063 32.2672ZM35.6484 43.2149C36.2812 43.2149 37.125 43.1305 37.5047 43.0461L38.1797 42.8563V44.8813C38.1797 45.9993 38.1164 46.9063 38.032 46.9063C37.9266 46.9063 37.4836 46.611 37.0406 46.2735C36.007 45.493 35.3953 45.4719 34.4039 46.2313C33.0539 47.286 33.1172 47.3493 33.1172 45.0078V42.8563L33.8133 43.0461C34.1719 43.1305 35.0156 43.2149 35.6484 43.2149Z" fill="#622862"/>
<path d="M34.4883 33.3008C33.4336 33.6804 32.5898 34.6086 32.2523 35.7265C31.5141 38.1523 34.0875 40.6836 36.5344 39.9664C37.6734 39.6078 38.707 38.5742 39.0023 37.4562C39.7195 34.8195 37.0617 32.3726 34.4883 33.3008ZM36.9352 35.2836C37.2727 35.6422 37.5469 36.1273 37.5469 36.4226C37.5469 37.0554 36.8297 38.0047 36.1547 38.2578C35.1 38.6586 33.75 37.625 33.75 36.3804C33.75 36.1484 34.0031 35.6844 34.2984 35.3258C35.0367 34.4398 36.0703 34.4187 36.9352 35.2836Z" fill="#622862"/>
<path d="M21.0937 30.7484C20.9672 30.9171 20.8828 31.2757 20.925 31.5499C20.9883 32.0351 21.0305 32.0351 24.2367 32.0984C27.5906 32.1617 28.0547 32.0562 28.0547 31.2757C28.0547 30.6007 27.3375 30.4531 24.3 30.4531C22.0008 30.4531 21.3047 30.5164 21.0937 30.7484Z" fill="#622862"/>
<path d="M20.8828 35.0938C20.7141 35.3891 20.7141 35.6422 20.8828 35.9375C21.0937 36.3172 21.3258 36.3594 23.9414 36.3594C26.5359 36.3594 26.7891 36.3172 27 35.9586C27.2742 35.4312 27.2742 35.3891 26.8734 35.0094C26.6203 34.7352 26.0297 34.6719 23.8359 34.6719C21.3258 34.6719 21.0937 34.7141 20.8828 35.0938Z" fill="#622862"/>
<path d="M21.0305 39.0383C20.7984 39.2703 20.8617 40.0508 21.1359 40.325C21.4523 40.6414 26.6414 40.6836 27.232 40.3672C27.675 40.1141 27.7594 39.5235 27.3797 39.1438C27.1055 38.8696 21.2836 38.7641 21.0305 39.0383Z" fill="#622862"/>
<path d="M24.2789 43.4047C24.1312 43.5734 24.068 43.9109 24.1523 44.1641C24.2789 44.5437 24.4477 44.5859 26.557 44.5859C28.3922 44.5859 28.8984 44.5227 29.1305 44.2484C29.3203 44.0164 29.3414 43.8266 29.1727 43.5734C28.8773 43.0672 24.6586 42.9406 24.2789 43.4047Z" fill="#622862"/>
<path d="M24.6375 47.2649C24.1734 47.3915 23.9414 48.1086 24.2578 48.4883C24.6375 48.9313 28.7297 48.9313 29.1094 48.4883C29.4469 48.0875 29.1938 47.3915 28.6242 47.2438C28.0969 47.1172 25.1859 47.1172 24.6375 47.2649Z" fill="#622862"/>
</svg>
