<svg width="54" height="55" viewBox="0 0 54 55" fill="none" xmlns="http://www.w3.org/2000/svg">
<path d="M27.2184 10L36.0101 15.1562H18.4268L27.2184 10Z" stroke="#662565" stroke-width="1.7" stroke-linejoin="round"/>
<path d="M20.7117 15.5V32H33.7117V15.5" stroke="#662565" stroke-width="1.7"/>
<path d="M24.88 32V28.006H29.5467V32" stroke="#662565" stroke-width="1.7" stroke-linejoin="round"/>
<circle cx="27.4476" cy="21.2292" r="3.04583" stroke="#662565" stroke-width="1.7"/>
<path d="M27.2117 19.9524V21.4583H28.7176" stroke="#662565" stroke-width="1.7" stroke-linecap="round" stroke-linejoin="round"/>
<path d="M37.4286 32H17" stroke="#662565" stroke-width="1.7" stroke-linecap="round"/>
<path d="M36 38.5H19M36 42H19M29 45.5H19M34 45.5H32M42.8628 40.5L50.4851 12.053C50.6281 11.5195 50.3115 10.9712 49.778 10.8283L42 8.74414M11.0004 40.5L3.37807 12.053C3.23513 11.5195 3.55171 10.9712 4.08518 10.8283L11.8632 8.74414M15.6992 52H38.6992C39.2515 52 39.6992 51.5523 39.6992 51V3C39.6992 2.44772 39.2515 2 38.6992 2H15.6992C15.1469 2 14.6992 2.44771 14.6992 3V51C14.6992 51.5523 15.1469 52 15.6992 52Z" stroke="#662565" stroke-width="2" stroke-linecap="round"/>
</svg>
