<svg width="54" height="55" viewBox="0 0 54 55" fill="none" xmlns="http://www.w3.org/2000/svg">
<path d="M18.255 32.9555L22.6411 40.7016L26.6734 35.7621L21.2013 31.9455M35.2174 32.9233L30.8064 40.7016L26.7742 35.7621L32.254 31.9212M48.5484 53C48.5484 40.9745 38.7997 31.2258 26.7742 31.2258C14.7486 31.2258 5 40.9745 5 53H48.5484Z" stroke="#662565" stroke-width="1.7"/>
<path d="M26.7743 3L27.0052 2.18198L26.7675 2.11487L26.5309 2.18559L26.7743 3ZM43.9114 7.83871L44.105 8.66637C44.4824 8.57807 44.7523 8.24556 44.7611 7.858C44.7699 7.47044 44.5154 7.12603 44.1423 7.02069L43.9114 7.83871ZM26.6735 11.871L26.4798 12.6986L26.6735 12.7439L26.8671 12.6986L26.6735 11.871ZM9.43555 7.83871L9.22257 7.01583C8.84391 7.11383 8.58101 7.45758 8.58561 7.84869C8.5902 8.23979 8.86109 8.57728 9.24194 8.66637L9.43555 7.83871ZM18.0041 5.62097L18.2171 6.44385L18.2324 6.4399L18.2475 6.43538L18.0041 5.62097ZM15.0807 9.15922L15.2743 8.33156L15.0807 9.15922ZM42.5001 8.16884L42.3065 7.34118V7.34118L42.5001 8.16884ZM43.5081 16.004H44.3581C44.3581 15.6821 44.1762 15.3878 43.8883 15.2438L43.5081 16.004ZM43.5081 19.4315L43.0207 20.1278C43.2803 20.3096 43.6195 20.3318 43.9007 20.1854C44.1818 20.039 44.3581 19.7484 44.3581 19.4315H43.5081ZM42.5001 18.7258L42.9875 18.0295C42.6819 17.8156 42.2726 17.8259 41.9782 18.0549L42.5001 18.7258ZM41.5928 19.4315H40.7428C40.7428 19.7561 40.9277 20.0524 41.2194 20.195C41.511 20.3377 41.8584 20.3017 42.1147 20.1024L41.5928 19.4315ZM41.5928 16.004L41.18 15.261C40.9102 15.4109 40.7428 15.6953 40.7428 16.004H41.5928ZM25.5394 17.7857L25.7804 16.9706L25.5394 17.7857ZM27.8075 17.7857L27.5665 16.9706L27.8075 17.7857ZM15.9307 19.6331V14.6935H14.2307V19.6331H15.9307ZM37.4162 14.6935V19.6331H39.1162V14.6935H37.4162ZM26.5433 3.81802L43.6804 8.65673L44.1423 7.02069L27.0052 2.18198L26.5433 3.81802ZM9.64853 8.66159L18.2171 6.44385L17.7911 4.79808L9.22257 7.01583L9.64853 8.66159ZM18.2475 6.43538L27.0176 3.81441L26.5309 2.18559L17.7607 4.80656L18.2475 6.43538ZM26.8671 11.0433L15.2743 8.33156L14.8871 9.98687L26.4798 12.6986L26.8671 11.0433ZM15.2743 8.33156L9.62915 7.01105L9.24194 8.66637L14.8871 9.98687L15.2743 8.33156ZM15.9307 14.6935V9.15922H14.2307V14.6935H15.9307ZM38.0726 8.33156L26.4798 11.0433L26.8671 12.6986L38.4598 9.98687L38.0726 8.33156ZM39.1162 14.6935V9.15922H37.4162V14.6935H39.1162ZM14.8397 15.5087L25.2984 18.6008L25.7804 16.9706L15.3217 13.8784L14.8397 15.5087ZM28.0485 18.6008L38.5072 15.5087L38.0252 13.8784L27.5665 16.9706L28.0485 18.6008ZM43.7178 7.01105L42.3065 7.34118L42.6937 8.99649L44.105 8.66637L43.7178 7.01105ZM42.3065 7.34118L38.0726 8.33156L38.4598 9.98687L42.6937 8.99649L42.3065 7.34118ZM41.6501 8.16884V15.5H43.3501V8.16884H41.6501ZM42.1199 16.2603L43.128 16.7643L43.8883 15.2438L42.8802 14.7397L42.1199 16.2603ZM42.6581 16.004V19.4315H44.3581V16.004H42.6581ZM43.9956 18.7351L42.9875 18.0295L42.0126 19.4222L43.0207 20.1278L43.9956 18.7351ZM41.9782 18.0549L41.071 18.7605L42.1147 20.1024L43.0219 19.3968L41.9782 18.0549ZM42.4428 19.4315V16.004H40.7428V19.4315H42.4428ZM42.0056 16.7471L42.9129 16.243L42.0873 14.757L41.18 15.261L42.0056 16.7471ZM25.2984 18.6008C26.1959 18.8661 27.151 18.8661 28.0485 18.6008L27.5665 16.9706C26.9836 17.1429 26.3633 17.1429 25.7804 16.9706L25.2984 18.6008ZM26.6735 30.3758C20.7404 30.3758 15.9307 25.5661 15.9307 19.6331H14.2307C14.2307 26.505 19.8015 32.0758 26.6735 32.0758V30.3758ZM26.6735 32.0758C33.5454 32.0758 39.1162 26.505 39.1162 19.6331H37.4162C37.4162 25.5661 32.6065 30.3758 26.6735 30.3758V32.0758Z" fill="#662565"/>
</svg>
