<svg width="54" height="55" viewBox="0 0 54 55" fill="none" xmlns="http://www.w3.org/2000/svg">
<path fill-rule="evenodd" clip-rule="evenodd" d="M24.4349 3.31991C19.8843 4.52043 16.6516 8.36043 16.2946 12.9893C16.0722 15.8715 16.7541 17.8972 18.9962 21.0159C21.1985 24.0791 21.1153 23.8018 21.1153 28.0792V31.7806L22.3519 33.0174L23.5888 34.254H26.9603H30.3318L31.5329 33.0939L32.7339 31.9337L32.8315 27.9359L32.9291 23.9383L33.9893 22.4082C36.4284 18.8876 36.7146 18.4104 37.152 17.1359C37.798 15.2537 37.8021 12.2596 37.1614 10.394C35.3509 5.12187 29.639 1.94677 24.4349 3.31991ZM12.3379 5.04942C12.2096 5.20388 12.133 5.57294 12.1676 5.86936C12.2191 6.31067 12.4654 6.53328 13.5296 7.10015C14.8225 7.78906 14.8305 7.79043 15.2474 7.41317C15.949 6.77834 15.708 6.15368 14.4761 5.41438C13.3103 4.71473 12.7019 4.61084 12.3379 5.04942ZM39.5037 5.38353C38.3649 6.04745 38.1971 6.28802 38.376 7.00134C38.5719 7.78145 39.1555 7.79805 40.5009 7.06129C41.4743 6.5282 41.7288 6.28978 41.7792 5.86311C41.9221 4.65302 41.0666 4.47259 39.5037 5.38353ZM29.0714 5.24079C30.763 5.69108 31.8889 6.34094 33.1385 7.58794C35.0197 9.46565 35.905 11.8181 35.7066 14.4128C35.5678 16.2296 35.0084 17.5987 33.6231 19.5111C31.9659 21.7991 31.2844 22.9286 31.0618 23.7553L30.8638 24.4905H29.4066H27.9497V20.36V16.2292L28.9261 15.1968C29.9458 14.1188 30.111 13.5966 29.5957 13.0811C29.1171 12.6027 28.6033 12.7142 27.7551 13.4804L26.9734 14.1867L26.1917 13.4804C25.3435 12.7142 24.8297 12.6027 24.3511 13.0811C23.8358 13.5966 24.001 14.1188 25.0207 15.1968L25.997 16.2292V20.36V24.4905H24.5401H23.083L22.885 23.7553C22.6612 22.9239 21.9764 21.7917 20.3016 19.4836C18.9741 17.6545 18.3737 16.1509 18.2346 14.3093C17.9257 10.2145 20.7031 6.37589 24.7889 5.25055C26.0173 4.91215 27.8216 4.90805 29.0714 5.24079ZM10.2192 13.0086C10.0903 13.1375 9.98486 13.4714 9.98486 13.7507C9.98486 14.5472 10.3264 14.727 11.8399 14.727C13.3535 14.727 13.695 14.5472 13.695 13.7507C13.695 12.9542 13.3535 12.7743 11.8399 12.7743C11.0219 12.7743 10.3574 12.8704 10.2192 13.0086ZM40.4861 13.0086C40.3572 13.1375 40.2518 13.4714 40.2518 13.7507C40.2518 14.5472 40.5933 14.727 42.1068 14.727C43.6204 14.727 43.9619 14.5472 43.9619 13.7507C43.9619 13.4714 43.8565 13.1375 43.7276 13.0086C43.4165 12.6976 40.7972 12.6976 40.4861 13.0086ZM13.4021 20.459C12.4742 20.9741 12.2174 21.2198 12.1676 21.6402C12.0223 22.8657 12.8969 23.0348 14.4761 22.0866C15.6559 21.3781 15.9127 20.8111 15.3402 20.1786C14.8908 19.6818 14.7709 19.6992 13.4021 20.459ZM38.6066 20.1786C38.0341 20.8111 38.2909 21.3781 39.4707 22.0866C41.0498 23.0348 41.9244 22.8657 41.7792 21.6402C41.7294 21.2198 41.4726 20.9741 40.5447 20.459C39.1758 19.6992 39.0559 19.6818 38.6066 20.1786ZM30.8788 27.4196V28.3959H26.9734H23.068V27.4196V26.4432H26.9734H30.8788V27.4196ZM30.8788 30.5845C30.8788 30.7142 30.5535 31.1535 30.1557 31.5609L29.4326 32.3013H26.9908H24.5489L23.8084 31.5783C22.5642 30.3633 22.6019 30.3486 26.9734 30.3486C29.8948 30.3486 30.8788 30.408 30.8788 30.5845ZM17.1122 36.5288C15.7108 36.8205 14.6866 37.172 12.582 38.0829C9.36937 39.4734 7.92437 39.8938 5.49657 40.1444C4.36733 40.261 3.33357 40.4439 3.19922 40.5511C3.03714 40.6804 2.95513 41.3238 2.95513 42.4661C2.95513 44.0144 2.91608 44.199 2.56498 44.3103C2.02603 44.4813 1.95515 44.9254 2.01998 47.7222C2.07505 50.0989 2.08813 50.1637 2.56459 50.4045C2.93853 50.5933 5.38761 50.6517 13.0371 50.6538L23.0217 50.6568L23.5274 51.3201C24.2074 52.2115 25.825 53 26.9734 53C28.1218 53 29.7394 52.2115 30.4193 51.3201L30.9251 50.6568H40.8481C46.8228 50.6568 50.9702 50.581 51.2718 50.4664L51.7727 50.276V47.3551C51.7727 44.6059 51.7499 44.4272 51.3822 44.3105C51.0305 44.199 50.9916 44.015 50.9916 42.4661C50.9916 41.3238 50.9096 40.6804 50.7475 40.5511C50.6134 40.4439 49.5794 40.261 48.4502 40.1444C46.0765 39.8995 44.4194 39.4275 41.7991 38.2503C36.9648 36.0781 34.165 35.8646 31.0331 37.4297C29.8702 38.0109 27.9972 39.6464 27.2968 40.6927L26.9734 41.1754L26.65 40.6927C26.0041 39.7279 24.065 37.9812 23.0934 37.4889C21.302 36.5811 18.7939 36.1784 17.1122 36.5288ZM20.9093 38.7269C22.4636 39.2106 23.9955 40.3836 25.1068 41.9409C25.7824 42.8877 25.997 43.3644 25.997 43.9188C25.997 44.594 25.964 44.6368 25.5577 44.4862C25.3161 44.3966 20.5664 44.2962 15.0031 44.263L4.88772 44.2027L4.94669 43.1826L5.00547 42.1625L6.37236 42.0129C8.36959 41.7946 10.2088 41.2408 13.0393 40.0057C16.9359 38.3055 18.6568 38.0259 20.9093 38.7269ZM37.2302 38.6381C37.8773 38.7908 39.5345 39.4074 40.9126 40.0085C43.7387 41.241 45.5787 41.7946 47.5744 42.0129L48.9413 42.1625L49.0001 43.1826L49.059 44.2027L38.9436 44.263C33.3804 44.2962 28.6308 44.3966 28.3891 44.4862C27.9827 44.6368 27.9497 44.594 27.9497 43.9188C27.9497 43.3644 28.1643 42.8877 28.84 41.9409C30.9356 39.0042 33.8756 37.8468 37.2302 38.6381ZM24.9102 46.4405C25.2722 46.5918 25.7691 46.9872 26.0146 47.3192C26.6145 48.1303 27.3323 48.1303 27.9322 47.3192C28.79 46.1591 28.7224 46.1655 39.855 46.1655H50.0153V47.3372V48.5088H40.2645C34.5094 48.5088 30.3117 48.5855 30.0208 48.6962C29.7497 48.7993 29.3529 49.2266 29.1391 49.6456C28.7386 50.4306 27.7857 51.0473 26.9734 51.0473C26.1611 51.0473 25.2081 50.4306 24.8076 49.6456C24.5938 49.2266 24.197 48.7993 23.926 48.6962C23.635 48.5855 19.4373 48.5088 13.6823 48.5088H3.93148V47.3372V46.1655H14.0918C22.3867 46.1655 24.373 46.2161 24.9102 46.4405Z" fill="#622862"/>
</svg>
