<svg width="54" height="55" viewBox="0 0 54 55" fill="none" xmlns="http://www.w3.org/2000/svg">
<g clip-path="url(#clip0_1037_1985)">
<path d="M16.8834 0.5C18.2988 1.18977 19.7205 1.86477 21.1212 2.57774C21.6401 2.84352 22.1442 3.23375 21.754 3.90453C21.3321 4.62172 20.7837 4.28211 20.212 4.00578C18.9464 3.39406 17.6998 2.74016 16.3814 2.30562C15.1495 1.89641 14.6348 2.37735 15.0377 3.61977C15.6305 5.43805 16.451 7.1825 17.2694 9.18641C20.0264 5.88945 23.3044 4.42344 27.2869 4.79047C30.1303 5.05203 32.5202 6.31555 34.4229 8.45657C37.9076 12.3737 38.629 19.2798 33.0666 24.3043C34.6887 25.2092 36.2686 26.0677 38.1016 26.3293C38.8294 26.4327 39.2681 26.0825 39.0445 25.3801C38.6227 24.0891 38.0953 22.8362 37.5869 21.5832C37.4583 21.2626 37.1271 20.9926 37.0849 20.672C37.0385 20.3155 37.1018 19.7586 37.3296 19.6067C37.5574 19.4548 38.2472 19.5477 38.3969 19.7649C39.6162 21.5389 40.7025 23.3994 40.7489 25.6374C40.7805 27.192 39.8777 28.0463 38.302 27.9957C36.1188 27.924 34.252 26.9157 32.4211 25.8695C31.7587 25.494 31.2525 25.4012 30.5016 25.7387C28.5106 26.6159 26.3019 26.8745 24.1621 26.4811C22.0223 26.0877 20.0501 25.0603 18.5013 23.5323C16.9297 22.0029 15.8562 20.0349 15.4212 17.8856C14.9861 15.7363 15.2098 13.5058 16.0629 11.4856C16.3371 10.8359 16.2738 10.3909 15.9574 9.76437C15.0293 7.88914 14.078 5.99703 13.4262 4.01422C12.8398 2.21914 13.3692 1.3775 14.9892 0.508439L16.8834 0.5ZM19.5876 9.21805C18.3368 10.4689 18.3326 10.4731 19.2586 11.7134C22.4517 16.0131 26.318 19.769 30.7083 22.8362C31.2609 23.2222 31.628 23.258 32.149 22.7961C34.9502 20.2648 36.0766 17.1472 35.1865 13.4832C34.3048 9.86141 31.9064 7.57696 28.2951 6.66993C27.3839 6.43789 26.4094 6.45898 25.4623 6.37039L25.3336 6.70578L28.4976 9.7707C28.9195 10.182 29.3414 10.6482 28.8141 11.2093C28.2487 11.8189 27.7488 11.4202 27.2953 10.9625C26.1309 9.79179 24.975 8.61055 23.779 7.47149C23.5427 7.24578 23.0808 7.00531 22.8277 7.08969C22.159 7.30063 21.5452 7.70352 20.8216 8.07266L28.2741 15.5124C28.4723 15.7107 28.7655 15.89 28.8309 16.1284C28.9237 16.4574 28.9765 17.0101 28.7993 17.1472C28.5441 17.3434 28.042 17.3434 27.6919 17.2548C27.424 17.1852 27.2236 16.8498 27 16.622L19.5876 9.21805ZM24.2515 24.4794C23.6566 23.9352 23.0597 23.3952 22.4712 22.8425C22.0493 22.4523 21.754 21.9987 22.2286 21.4777C22.7475 20.9124 23.2305 21.2098 23.6714 21.6507C24.589 22.5725 25.4918 23.5091 26.441 24.3929C26.6899 24.627 27.0991 24.8654 27.4071 24.8316C28.1454 24.7515 28.8689 24.511 29.8519 24.2727C25.1428 21.0099 21.0163 16.9782 17.6449 12.3462C15.4702 16.6473 18.109 23.5091 24.2515 24.4794Z" fill="#622862"/>
<path d="M23.0027 54.4999C21.7202 54.0063 20.8195 53.0887 19.9357 52.0488C17.5774 49.275 14.3627 47.8617 10.9097 47.1973C7.7857 46.594 4.58155 46.3978 1.40483 46.0856C0.179284 45.9654 0.0105378 45.8895 0.0042097 44.6555C0.0042097 43.8117 0.0147566 42.968 0.0042097 42.1242C-0.0105559 41.388 0.310069 40.9957 1.0589 41.002C6.9989 41.0527 12.8714 41.5399 18.3937 43.9552C20.0812 44.6913 21.6359 45.7692 23.123 46.864C23.7684 47.3365 24.1629 48.214 24.532 48.9734C24.9391 49.8171 25.7323 50.3044 27.0823 50.2685C28.1095 50.2432 29.0018 50.0133 29.4975 48.9312C29.8202 48.2245 30.2105 47.482 30.7631 46.9568C32.8725 44.9466 35.4839 43.8075 38.2176 42.949C42.9954 41.4598 47.9208 41.0126 52.8968 41.0041C53.2063 41.0373 53.5112 41.1045 53.8059 41.2045V45.8452C53.3292 45.919 52.8525 46.0055 52.3716 46.0561C49.3108 46.4126 46.2122 46.5771 43.1958 47.1635C39.709 47.8406 36.4626 49.2455 34.0812 52.0425C33.1994 53.0803 32.3008 53.9958 31.0205 54.4894L23.0027 54.4999ZM1.72335 44.164C4.60265 44.5226 7.41866 44.7187 10.1608 45.2524C14.8015 46.151 19.0371 47.887 22.0472 51.8505C22.4585 52.3905 23.4246 52.7112 24.1566 52.7597C26.055 52.8841 27.9534 52.7892 29.8519 52.8061C30.3106 52.8303 30.7679 52.7368 31.1802 52.5345C31.5926 52.3322 31.9464 52.0277 32.208 51.6502C33.6023 49.7243 35.4501 48.3574 37.5595 47.3154C40.3966 45.9105 43.4236 45.1575 46.5476 44.7841C48.446 44.5584 50.3719 44.4382 52.2724 44.2695V42.6832C46.845 42.8034 41.5399 43.2696 36.5512 45.4254C34.9566 46.1109 33.518 47.1614 32.0372 48.0916C31.6864 48.3243 31.4074 48.6501 31.2314 49.0324C30.067 51.6164 28.0673 52.5593 25.361 51.743C24.8365 51.5919 24.3516 51.3273 23.9407 50.9678C23.5299 50.6084 23.2032 50.163 22.9837 49.6631C22.6631 48.9966 22.2539 48.2604 21.6738 47.8533C20.3994 46.9247 19.0365 46.1242 17.6048 45.4634C13.8966 43.8223 9.93937 43.1895 5.92523 42.8899C4.53937 42.7866 3.14928 42.7444 1.72757 42.679L1.72335 44.164Z" fill="#622862"/>
<path d="M53.8059 32.3516C52.6247 32.4233 51.435 32.4381 50.2622 32.5921C49.7458 32.67 49.2661 32.9058 48.889 33.2671C48.3237 33.8324 47.9398 34.577 47.3955 35.1655C47.0981 35.4903 46.6235 35.8468 46.2396 35.8342C45.9802 35.8342 45.7376 35.2014 45.4971 34.847C45.4397 34.7575 45.4083 34.6538 45.4064 34.5474C45.3368 32.2693 44.0754 31.1999 41.888 31.0438C41.6787 31.0154 41.4743 30.9587 41.2805 30.875C40.4093 30.5544 40.2637 29.9026 40.9451 29.2951C41.2974 28.9498 41.6939 28.6526 42.1242 28.4113C43.6556 27.6582 44.1682 26.4538 43.9003 24.8148C43.8379 24.3246 43.8379 23.8284 43.9003 23.3382C43.9762 22.5472 44.5331 22.2287 45.2334 22.6126C46.092 23.0893 46.883 23.6926 47.7647 24.1377C48.1807 24.3321 48.6487 24.3854 49.0978 24.2896C50.0175 24.0786 50.8929 23.6757 51.8062 23.431C52.1353 23.3424 52.6816 23.3446 52.8462 23.5428C53.0571 23.796 53.0698 24.298 53.0191 24.6714C52.9581 25.1614 52.8095 25.6366 52.5804 26.0741C51.4772 28.0759 52.5804 29.4828 53.8102 30.8687L53.8059 32.3516ZM50.9203 25.5383C48.9291 26.7301 47.2352 26.2365 45.573 24.8928C46.0118 27.0887 45.3895 28.6602 43.2823 29.563C44.3812 29.9638 45.3916 30.0587 45.9506 30.6177C46.5096 31.1767 46.556 32.1596 46.9484 33.3092C47.7921 30.875 49.4796 30.586 51.589 30.8286C50.066 29.2065 49.9816 27.4937 50.9203 25.5383Z" fill="#622862"/>
<path d="M27.0274 47.1426C31.668 42.0168 37.5068 39.2472 44.1809 38.163C46.1827 37.8382 48.233 37.7939 50.2601 37.6314C50.8802 37.5829 51.4561 37.7306 51.4519 38.4752C51.4477 39.2198 50.8634 39.3189 50.2516 39.3189C44.4572 39.3907 38.9665 40.6162 33.9525 43.6284C31.6423 44.9803 29.5921 46.734 27.8986 48.8069C27.2468 49.6232 26.8249 49.6507 26.2111 48.9229C21.2414 42.9998 14.6602 40.3314 7.17187 39.513C6.05812 39.3907 4.9296 39.3611 3.80742 39.3232C3.20624 39.3021 2.59452 39.2472 2.57132 38.5047C2.54601 37.6863 3.18093 37.6104 3.83694 37.623C12.7512 37.7939 20.6909 40.3631 27.0274 47.1426Z" fill="#622862"/>
<path d="M3.63234 18.2568C4.61531 18.5859 5.63413 18.9782 6.6846 19.2545C7.1019 19.3462 7.538 19.2926 7.9207 19.1027C8.76445 18.6681 9.52593 18.0965 10.3444 17.6261C11.1881 17.1325 11.9306 17.4869 11.7851 18.4488C11.3885 21.0749 12.2069 22.9713 14.6369 24.161C14.9048 24.2938 15.198 24.836 15.1263 25.0806C15.0314 25.3971 14.6159 25.7135 14.2699 25.8379C13.4473 26.1353 12.5592 26.2598 11.7492 26.5762C11.3389 26.7615 11.0124 27.0932 10.8337 27.5064C10.53 28.2848 10.433 29.1412 10.1545 29.9322C10.0322 30.2824 9.73265 30.7021 9.41413 30.8055C9.17155 30.8835 8.62101 30.5946 8.48812 30.333C7.29 27.9304 5.41898 27.055 2.77593 27.4706C1.81195 27.6224 1.47023 26.9074 1.93218 26.0404C1.94618 26.0084 1.96465 25.9786 1.98703 25.9518C3.83273 24.0302 3.77367 21.9229 2.71476 19.6385C2.29922 18.7483 2.76539 18.1535 3.63234 18.2568ZM12.3356 24.5849C10.1967 23.6062 9.80437 21.9271 10.0617 19.7481C8.46281 21.4778 6.73312 21.4209 4.78828 20.4864C5.72273 22.4207 5.65101 24.1378 4.12594 25.7599C6.2775 25.416 7.91015 25.9096 8.90156 28.0148C9.01757 25.7936 10.1208 24.741 12.3356 24.5913V24.5849Z" fill="#622862"/>
<path d="M41.7234 32.6153C41.1117 32.9865 40.7721 33.3662 40.4156 33.381C35.1738 33.6109 31.9191 36.6231 29.6283 41.0043C29.3498 41.5401 29.0271 42.1011 28.3816 41.7067C28.1095 41.5401 27.8986 40.8039 28.0399 40.5086C30.3223 35.714 33.8027 32.4212 39.3103 31.7694C39.7322 31.7209 40.1794 31.6534 40.5759 31.7694C40.905 31.858 41.1729 32.1934 41.7234 32.6153Z" fill="#622862"/>
<path d="M14.6602 28.8352C16.257 29.66 17.7841 30.2379 19.0645 31.1555C22.0388 33.2944 23.8043 36.3783 25.1606 39.7006C25.283 40.0043 24.9159 40.5085 24.7746 40.9198C24.3907 40.7089 23.8444 40.5992 23.6524 40.2743C22.8255 38.8927 22.1864 37.3972 21.3321 36.0408C20.0138 33.9652 18.3241 32.244 15.9849 31.2884C15.5018 31.0922 14.9302 31.0775 14.4788 30.8518C14.1075 30.6619 13.8459 30.2611 13.5316 29.9553L14.6602 28.8352Z" fill="#622862"/>
<path d="M27.3565 36.3131C27.0359 36.4544 26.7047 36.7349 26.3967 36.7033C26.0402 36.6759 25.553 36.4776 25.3842 36.197C24.7092 35.0116 24.1355 33.767 23.5259 32.5436C23.0407 31.5712 22.4986 30.6199 22.1084 29.6095C21.9902 29.3099 22.3024 28.8417 22.4184 28.4514C22.8024 28.5885 23.3951 28.6138 23.5385 28.8733C24.7092 31.0692 25.7956 33.303 26.9135 35.5389C26.9626 35.6684 27.0007 35.8018 27.0274 35.9376L27.3565 36.3131Z" fill="#622862"/>
<path d="M31.2504 30.0185C31.1912 30.2164 31.1207 30.4108 31.0395 30.6007C30.5332 31.6322 30.067 32.6911 29.4722 33.6719C29.3013 33.9546 28.7508 34.0052 28.3732 34.1634C28.2488 33.7521 27.9155 33.2585 28.0378 32.9442C28.4782 31.8437 29.0044 30.7794 29.6114 29.7612C29.7738 29.4827 30.2632 29.2908 30.6197 29.2634C30.9234 29.2423 31.2525 29.5165 31.5668 29.6578L31.2504 30.0185Z" fill="#622862"/>
<path d="M30.5649 12.2534C31.1238 12.2323 32.6342 13.7152 32.6215 14.2742C32.6088 14.8775 31.9275 15.3289 31.4297 14.9724C30.841 14.5422 30.3216 14.0243 29.8899 13.4368C29.5186 12.9368 29.9468 12.2766 30.5649 12.2534Z" fill="#622862"/>
<path d="M32.8008 19.9631C32.6552 20.7879 31.9866 21.2983 31.4845 20.9503C30.8603 20.5117 30.3129 19.9728 29.8645 19.3556C29.5059 18.8641 30.0987 18.0014 30.5923 18.2545C31.4044 18.6764 32.0709 19.3788 32.8008 19.9631Z" fill="#622862"/>
<path d="M21.4671 19.3916C21.2941 20.2544 20.5622 20.7036 20.0264 20.305C19.4688 19.8885 18.9767 19.3908 18.5667 18.8284C18.1807 18.2947 18.7671 17.375 19.2839 17.6472C20.0918 18.0775 20.7478 18.7968 21.4671 19.3916Z" fill="#622862"/>
</g>
<defs>
<clipPath id="clip0_1037_1985">
<rect width="53.808" height="54" fill="white" transform="translate(0 0.5)"/>
</clipPath>
</defs>
</svg>
