<svg width="56" height="55" viewBox="0 0 56 55" fill="none" xmlns="http://www.w3.org/2000/svg">
<path d="M37.4373 28.9672C36.7286 23.2264 41.2173 21.0234 43.5503 20.6395C47.4484 20.6395 49.486 22.5885 49.929 23.2973C50.2834 23.8643 51.1398 23.8879 51.5237 23.8288C51.5945 25.8133 50.1948 26.0732 49.486 25.9551C49.8699 26.5457 50.2479 28.5065 48.6887 31.625C46.7396 35.5231 38.3233 36.1433 37.4373 28.9672Z" stroke="#622862" stroke-width="1.8"/>
<path d="M8.37872 26.841C6.53598 28.6837 3.35843 26.4866 2 25.1577C3.13399 28.418 6.72498 32.0089 8.37872 33.3969C10.1801 34.7849 14.4739 36.728 17.2381 33.3969C20.6932 29.233 16.6179 24.449 13.7829 24.3604C10.9479 24.2718 10.062 23.2973 9.35325 22.7657C8.78625 22.3405 6.34107 19.6945 5.18936 18.4246C4.97674 19.346 5.9867 21.4073 6.51826 22.3227C7.52232 23.5335 9.30009 26.1322 8.37872 26.841Z" stroke="#622862" stroke-width="1.8"/>
<path d="M20.8704 24.3604C20.0908 10.8942 25.6249 3.98392 28.4894 2.21205C30.7042 1.32612 30.8814 3.45236 29.9069 4.2497C29.1273 4.88757 28.6371 5.63766 28.4894 5.93297C22.4651 17.8931 23.5282 23.8288 27.1605 33.0425C30.0664 40.4135 29.4935 46.8631 28.8438 49.1665C29.7651 48.5286 31.1177 44.1758 31.6788 42.079C32.5293 37.3304 30.911 33.1311 29.9955 31.625L28.135 26.841C26.186 18.2474 27.6035 11.4258 29.2867 9.38811C30.6334 7.75799 31.0881 9.00421 31.1472 9.83108C29.021 28.6129 38.3233 37.0292 43.5503 37.738C47.7319 38.305 51.0807 34.8439 52.2324 33.0425C51.0984 37.5785 47.6846 41.9019 46.1195 43.4965C39.475 50.4954 29.021 54.7479 17.2381 49.9639C7.81172 46.1366 3.3289 37.1474 2.26578 33.0425C2.53156 34.0171 6.51826 37.1178 8.37872 37.738C10.2392 38.3581 21.8449 41.1931 20.8704 24.3604Z" stroke="#622862" stroke-width="1.8"/>
</svg>
