<svg width="59" height="51" viewBox="0 0 59 51" fill="none" xmlns="http://www.w3.org/2000/svg">
<g clip-path="url(#clip0_1037_1902)">
<path d="M56.9914 11.5401C56.9221 11.9462 56.4734 12.1438 56.0764 12.2537C54.9025 12.5784 53.7315 12.9231 52.5428 13.1763C51.6871 13.3608 51.1922 13.6781 51.1174 14.6614C51.047 15.5885 50.717 16.4908 50.6027 17.4179C50.4333 18.8198 49.6458 19.7266 48.5327 20.4219C43.5305 23.5497 34.9581 21.8306 31.4495 17.0061C30.6422 15.8945 30.2902 14.7222 30.64 13.318C30.9479 12.0917 31.5683 10.638 31.1855 9.62545C30.8028 8.61285 29.3267 8.0503 28.3742 7.24473C27.8221 6.77443 26.7068 6.51116 27.072 5.57508C27.2656 5.07553 28.1916 4.756 28.8318 4.58048C33.3677 3.36087 37.9138 2.18476 42.4702 1.05216C43.0179 0.929399 43.5907 1.02518 44.0716 1.31994C48.2239 4.3713 52.3359 7.47915 56.4597 10.573C56.6048 10.6819 56.7398 10.8069 56.8353 10.9611C56.9724 11.1823 57.0218 11.3621 56.9914 11.5401ZM53.9375 10.9351C53.4777 10.5683 53.172 10.3095 52.853 10.071C49.868 7.83428 46.8675 5.61558 43.9044 3.34962C43.6435 3.12305 43.3285 2.97121 42.9916 2.90955C42.6547 2.84789 42.3078 2.87861 41.9863 2.99859C40.6906 3.39912 39.362 3.67365 38.0487 4.02468C35.409 4.69974 32.7693 5.39956 30.1098 6.09262C30.1868 6.27264 30.1978 6.36264 30.2462 6.39865C33.6426 8.95038 37.0368 11.5066 40.4596 14.0201C40.7236 14.2159 41.2163 14.2226 41.5595 14.1394C43.8054 13.5948 46.0382 13.003 48.2753 12.4225C50.0989 11.9454 51.9291 11.4594 53.9375 10.9351ZM33.0003 10.71C32.7803 11.8126 32.6637 12.7735 32.4108 13.6961C32.1578 14.6187 32.4108 15.2982 32.9123 15.998C35.86 20.0304 43.4711 21.529 47.6396 18.8558C48.0796 18.5723 48.5833 18.138 48.7241 17.6677C49.065 16.5426 49.2058 15.3522 49.4522 14.0674C49.0122 14.1529 48.6977 14.1979 48.3919 14.2766C46.1922 14.8369 43.977 15.3612 41.7927 15.989C40.8556 16.2568 40.1473 16.1398 39.373 15.521C37.3074 13.8828 35.1912 12.3527 32.9893 10.7033L33.0003 10.71Z" fill="#622862" stroke="#622862" stroke-width="0.4"/>
<path d="M5.47372 45.024V43.5643C5.47372 34.8246 5.47372 26.0819 5.47372 17.3361C5.47372 14.8821 6.37232 13.9972 8.85374 13.9972H27.4347C27.738 13.9972 28.1189 13.8991 28.331 14.0382C28.6685 14.2503 29.0699 14.6016 29.1201 14.9505C29.1566 15.1946 28.7096 15.6074 28.388 15.7761C28.1189 15.9198 27.7198 15.8309 27.3777 15.8309H8.90391C7.37356 15.8309 7.29601 15.9084 7.29601 17.4479C7.29601 26.1146 7.29601 34.7813 7.29601 43.448C7.29601 44.9122 7.40548 45.0262 8.83777 45.0262H47.7102C49.1425 45.0262 49.2542 44.9099 49.2542 43.448C49.2542 36.9495 49.2542 30.4517 49.2542 23.9548C49.2542 23.6149 49.1653 23.2044 49.3204 22.949C49.5051 22.6434 49.8951 22.3149 50.219 22.2876C50.4721 22.2648 50.8758 22.6411 51.0081 22.9307C51.1404 23.2204 51.0788 23.6765 51.0788 24.0551C51.0788 30.8562 51.0788 37.658 51.0788 44.4606C51.0788 44.6043 51.097 44.7503 51.1153 45.0285C52.4974 45.0285 53.8521 45.0171 55.2206 45.0285C56.3404 45.0422 56.6346 45.3798 56.5548 46.4882C56.386 48.8305 54.6321 50.4999 52.2921 50.4999C36.2952 50.4999 20.2976 50.4999 4.29916 50.4999C3.20494 50.5255 2.1442 50.1216 1.34407 49.3748C0.543945 48.628 0.0680464 47.5975 0.0182692 46.5041C-0.0592749 45.3798 0.225814 45.0422 1.33652 45.0285C2.6867 45.0103 4.046 45.024 5.47372 45.024ZM54.5774 46.9147H2.09599C2.46775 48.258 3.00828 48.6685 4.3767 48.6708C20.3249 48.6708 36.2747 48.6708 52.226 48.6708C53.4188 48.6845 54.1327 48.1554 54.5774 46.9147Z" fill="#622862" stroke="#622862" stroke-width="0.4"/>
<path d="M20.8122 30.5632V29.1104C20.8122 27.2059 20.8122 24.3015 20.8122 22.397C20.8122 22.039 20.8285 21.6842 21.2312 21.5406C21.6339 21.3969 21.87 21.6592 22.0898 21.9454C22.375 22.3187 22.6731 22.6811 23.0943 23.2078C23.4012 22.8345 23.6547 22.4797 23.9551 22.1728C24.3643 21.756 24.644 21.7669 25.0651 22.1848C25.3731 22.4906 25.6582 22.8204 26.0184 23.2089C26.3797 22.828 26.6779 22.4971 26.9979 22.1848C27.4212 21.7669 27.6944 21.7593 28.1079 22.1739C28.4278 22.4939 28.7119 22.8497 29.0873 23.2731C29.4508 22.865 29.7174 22.5428 30.008 22.2468C30.5064 21.7386 30.76 21.7484 31.2736 22.2664C31.5283 22.5233 31.7819 22.7834 32.0354 23.0402C32.0752 23.0704 32.1178 23.0967 32.1627 23.1185C32.4675 22.8323 32.7787 22.5352 33.0954 22.2479C33.5731 21.8072 33.8223 21.8126 34.2925 22.2849C34.5613 22.5548 34.8279 22.8291 35.0956 23.0968C35.1305 23.1122 35.167 23.1239 35.2044 23.1316C35.5146 22.7213 35.8062 22.261 36.1773 21.8812C36.3591 21.694 36.7215 21.5297 36.9391 21.5819C37.1176 21.6233 37.332 22.0096 37.3331 22.2436C37.3519 27.4309 37.3483 33.6183 37.3222 38.8057C37.3174 39.4027 37.1818 39.9915 36.925 40.5306C36.358 41.6808 35.3796 42.3425 34.0792 42.4285C33.1933 42.4872 32.3031 42.4992 31.4151 42.5003C27.5699 42.5075 23.7248 42.5075 19.8796 42.5003C17.9915 42.5003 17.0022 41.51 17.0001 39.6099C17.0001 37.5596 17.0001 35.5101 17.0001 33.4612C16.9989 33.1164 17.0153 32.7717 17.049 32.4285C17.1579 31.3783 17.9251 30.6339 18.9872 30.5719C19.564 30.536 20.1429 30.5632 20.8122 30.5632ZM30.5826 23.309C30.2463 23.6779 29.9547 24.0251 29.6336 24.3439C29.243 24.7313 28.9535 24.7302 28.5617 24.3439C28.2352 24.0174 27.9338 23.6648 27.5747 23.272C27.1698 23.7073 26.864 24.0338 26.5495 24.3602C26.2089 24.7139 25.8585 24.7161 25.5124 24.3602C25.1859 24.0338 24.8594 23.6931 24.4372 23.2611C24.0705 23.6725 23.7614 24.0512 23.4164 24.3961C23.0899 24.7226 22.7395 24.6976 22.4261 24.3483C22.3347 24.246 22.2465 24.1426 22.0855 23.9576C22.0702 24.2155 22.055 24.3689 22.0539 24.5213C22.0409 28.8547 22.0343 34.1871 22.0104 38.5194C22.005 39.414 21.9309 40.3085 21.8863 41.2477H22.265C25.8008 41.2477 29.3387 41.2477 32.8712 41.2423C35.433 41.2347 36.1284 40.5371 36.136 37.9655C36.1425 33.8135 36.1403 28.6618 36.1294 24.5104C36.1294 24.3777 36.1088 24.2449 36.0924 24.0425C35.9836 24.1513 35.9368 24.2035 35.8933 24.2601C35.3807 24.8837 35.1195 24.8913 34.5417 24.2993C34.2555 24.0055 33.9725 23.7095 33.6711 23.3939C33.2913 23.7541 32.9626 24.0631 32.6361 24.3733C32.2803 24.7128 31.9342 24.6998 31.5947 24.3494L30.5826 23.309ZM20.7883 31.7918C20.6327 31.7777 20.5619 31.7646 20.4912 31.7646C20.1103 31.7646 19.7294 31.7646 19.3496 31.7712C18.5399 31.7951 18.2613 32.0508 18.2559 32.8529C18.2407 35.2079 18.2407 37.5629 18.2559 39.9179C18.2651 40.2046 18.3488 40.484 18.4986 40.7286C18.7837 41.1889 19.3605 41.3565 19.8916 41.2042C20.155 41.126 20.3853 40.9631 20.5468 40.7408C20.7083 40.5185 20.7921 40.2492 20.785 39.9744C20.7959 38.181 20.785 36.3832 20.7905 34.5941L20.7883 31.7918Z" fill="#622862" stroke="#622862" stroke-width="0.5"/>
<path d="M30.9614 28.2314C31.0441 28.9072 31.351 30.1923 32.0083 30.102C32.4197 30.0422 32.7396 30.2435 32.7386 30.7006C32.7375 31.1576 32.4251 31.3165 32.0062 31.3132C31.7548 31.3132 31.5034 31.3132 31.2553 31.3132C30.7188 32.8618 29.6294 34.5104 27.9546 34.3755C28.108 34.5757 28.1929 34.702 28.2941 34.8108C29.0341 35.6328 29.7763 36.4526 30.5207 37.2703C30.8036 37.5804 30.8929 37.9167 30.5533 38.2236C30.2138 38.5305 29.8895 38.402 29.6076 38.0919C28.4519 36.8154 27.2853 35.5486 26.1513 34.2536C26.0055 34.0871 25.9217 33.7193 26.0077 33.5375C26.0937 33.3558 26.419 33.2013 26.6519 33.1838C27.282 33.136 27.9187 33.1719 28.5531 33.1643C29.1353 33.1577 29.5815 31.9161 29.9276 31.3122H26.3853C25.7128 31.3122 25.4244 31.1326 25.4124 30.7136C25.4015 30.2783 25.691 30.0911 26.4082 30.09H29.8373C29.6338 28.5198 29.2474 28.251 28.5901 28.239C27.8109 28.2238 27.0306 28.239 26.2515 28.2325C25.6932 28.2325 25.3939 28.0148 25.4168 27.61C25.4483 27.0659 25.8325 27.0082 26.2689 27.0093C28.1552 27.0144 30.0415 27.0144 31.9278 27.0093C32.349 27.0093 32.7026 27.0931 32.7451 27.5926C32.7799 27.9985 32.4796 28.2249 31.9267 28.2325C31.6046 28.2347 31.2857 28.2314 30.9614 28.2314Z" fill="#622862" stroke="#622862" stroke-width="0.5"/>
</g>
<defs>
<clipPath id="clip0_1037_1902">
<rect width="58.1604" height="50" fill="white" transform="translate(0 0.5)"/>
</clipPath>
</defs>
</svg>
